:SAMPLES-PER-SECOND 30
:FULLY-SPECIFIED
:DEGREES
488
root  -54.7239 32.3338 21.3182 -164.974 53.4077 179.6
RightUpLeg  -13.8747 -16.5837 -1.67778
RightLeg  52.0085 -6.14696 -6.91015
RightFoot  7.91806 0.112162 -1.03996
RightToes  -68.2352 -0.47353 -0.413783
Spine  -0.244124 2.79023 -2.15176
Spine1  -0.679115 5.7655 -3.64399
HEad  -73.3176 -3.64624 3.10392
LeftShoulder1  -1.94126e-019 -3.10601e-018 -2.51263e-017
LeftArm  -5.40163 23.2497 -75.7701
LeftForeArm  26.1843 -23.6934 -3.95017
LeftHand  -0.298122 -0.817039 5.69311
RightShoulder  -4.96962e-017 0 -2.36833e-017
RightArm  -8.31651 9.13679 81.0338
RightForeArm  41.0408 35.4105 5.55205
RightHand  -0.197677 -2.70688 -8.11122
LeftUpLeg  -38.0508 -4.46511 -1.63228
LeftLeg  48.3737 13.5624 13.0531
LeftFoot  -13.5044 -0.536239 -4.36528
LeftToes  -8.56613 1.34695e-006 1.12385e-007
489
root  -53.8485 32.2132 20.4337 -164.716 53.6041 -179.7
RightUpLeg  -21.2185 -16.3451 -0.935166
RightLeg  65.4943 -6.29204 -11.6728
RightFoot  15.791 0.554831 -3.39116
RightToes  -36.6522 -0.192307 -0.295441
Spine  0.367967 3.00172 -2.12957
Spine1  0.499234 6.27464 -3.63132
HEad  -74.6998 -4.78494 1.57021
LeftShoulder1  -1.94126e-019 -3.10601e-018 -2.51263e-017
LeftArm  -3.04598 20.6767 -75.4026
LeftForeArm  25.7161 -24.1799 -3.97938
LeftHand  -0.293757 -0.918936 5.5293
RightShoulder  -4.96962e-017 0 -2.36833e-017
RightArm  -7.67564 12.7776 80.6579
RightForeArm  41.646 35.6625 5.57639
RightHand  -0.213698 -2.63638 -8.60205
LeftUpLeg  -35.9295 -3.51053 -1.87054
LeftLeg  49.0339 12.9361 12.761
LeftFoot  -15.8637 -0.711691 -4.94313
LeftToes  -8.17457 1.34695e-006 1.12385e-007
490
root  -52.927 32.1658 19.6023 -163.287 53.5692 -178.621
RightUpLeg  -28.5923 -15.6723 1.00411
RightLeg  73.6403 -4.76615 -13.0357
RightFoot  11.8643 0.333388 -2.59872
RightToes  -19.9731 -0.0813087 -0.176606
Spine  0.553681 2.93686 -2.17723
Spine1  0.847436 6.18557 -3.75678
HEad  -75.0095 -5.59195 0.188097
LeftShoulder1  -1.94126e-019 -3.10601e-018 -2.51263e-017
LeftArm  -1.3225 18.153 -74.7353
LeftForeArm  26.3925 -24.2785 -4.01737
LeftHand  -0.321922 -0.845451 6.11472
RightShoulder  -4.96962e-017 0 -2.36833e-017
RightArm  -6.42927 16.1757 80.9064
RightForeArm  42.2675 35.524 5.50549
RightHand  -0.238536 -2.5532 -9.39552
LeftUpLeg  -34.3341 -2.23118 -1.669
LeftLeg  48.9283 12.0816 11.9124
LeftFoot  -17.9023 -0.842281 -5.18212
LeftToes  -7.7798 1.34695e-006 1.12385e-007
491
root  -51.9172 32.3361 18.7596 -161.473 53.0685 -177.248
RightUpLeg  -34.8257 -14.6314 3.40368
RightLeg  75.2606 -3.39731 -10.3296
RightFoot  5.92199 0.0724202 -0.817401
RightToes  -17.7179 -0.0691056 -0.158225
Spine  0.557893 2.75176 -2.0878
Spine1  0.85455 5.84352 -3.61303
HEad  -75.272 -5.96602 -0.403116
LeftShoulder1  -1.94126e-019 -3.10601e-018 -2.51263e-017
LeftArm  -3.93717 16.0023 -75.1604
LeftForeArm  29.319 -23.4316 -3.93849
LeftHand  -0.379867 -0.851086 7.1916
RightShoulder  -4.96962e-017 0 -2.36833e-017
RightArm  -5.95923 18.5243 81.1842
RightForeArm  42.8088 35.369 5.43585
RightHand  -0.243912 -2.55969 -9.64078
LeftUpLeg  -32.0462 -1.25926 -1.06804
LeftLeg  47.1942 11.6766 10.8683
LeftFoot  -18.8602 -0.876101 -5.10972
LeftToes  -8.23842 1.34695e-006 1.12385e-007
492
root  -50.8041 32.6534 17.8656 -160.089 52.4001 -176.056
RightUpLeg  -39.6209 -14.203 6.05441
RightLeg  71.727 -3.38371 -8.51741
RightFoot  -0.232292 -0.00136282 0.35847
RightToes  -16.0074 -0.0603379 -0.143972
Spine  0.607479 2.55358 -1.86384
Spine1  0.975152 5.45997 -3.19032
HEad  -75.8088 -5.77861 -0.242716
LeftShoulder1  -1.94126e-019 -3.10601e-018 -2.51263e-017
LeftArm  -8.35376 14.4822 -76.3398
LeftForeArm  31.6684 -22.9322 -3.92631
LeftHand  -0.409234 -0.200412 8.58098
RightShoulder  -4.96962e-017 0 -2.36833e-017
RightArm  -5.71227 20.3217 81.1183
RightForeArm  42.8063 35.3187 5.42298
RightHand  -0.241399 -2.53743 -9.464
LeftUpLeg  -28.5882 -0.9444 -0.360792
LeftLeg  43.9588 11.7913 9.81659
LeftFoot  -18.6767 -0.825559 -4.85563
LeftToes  -9.59863 1.34695e-006 1.12385e-007
493
root  -49.5964 33.0699 16.9353 -158.898 51.7496 -174.964
RightUpLeg  -43.0738 -13.4731 8.69184
RightLeg  64.2143 -4.46424 -7.9558
RightFoot  -3.81432 0.0101648 0.9207
RightToes  -12.3321 -0.0429602 -0.112498
Spine  0.648209 2.29777 -1.22109
Spine1  1.13468 4.91094 -1.88819
HEad  -76.5948 -5.36507 -0.379259
LeftShoulder1  -1.94126e-019 -3.10601e-018 -2.51263e-017
LeftArm  -10.626 13.6569 -78.3618
LeftForeArm  31.1978 -21.8806 -3.74706
LeftHand  -0.41156 0.338547 9.49889
RightShoulder  -4.96962e-017 0 -2.36833e-017
RightArm  -5.11852 22.0418 80.5261
RightForeArm  43.0181 35.1694 5.37755
RightHand  -0.258235 -2.47285 -9.94317
LeftUpLeg  -24.5772 -1.25001 0.550797
LeftLeg  39.9956 12.3165 8.90356
LeftFoot  -17.1569 -0.69077 -4.41522
LeftToes  -11.2895 1.34695e-006 1.12385e-007
494
root  -48.2703 33.5431 15.9556 -157.505 50.9455 -173.622
RightUpLeg  -44.7165 -12.7273 11.2368
RightLeg  52.6976 -5.42177 -6.26071
RightFoot  -1.91849 -0.00117032 0.561977
RightToes  -16.1244 -0.0609239 -0.144955
Spine  0.568762 2.12058 -0.897291
Spine1  1.00926 4.55667 -1.25902
HEad  -77.5626 -4.84941 1.30582
LeftShoulder1  -1.94126e-019 -3.10601e-018 -2.51263e-017
LeftArm  -9.98154 13.4199 -79.1576
LeftForeArm  30.6183 -22.8412 -3.98027
LeftHand  -0.420144 0.120927 9.31596
RightShoulder  -4.96962e-017 0 -2.36833e-017
RightArm  -5.42132 22.8483 80.4324
RightForeArm  42.7016 34.902 5.32804
RightHand  -0.253672 -2.64549 -10.3528
LeftUpLeg  -20.7489 -1.89254 1.7931
LeftLeg  36.4596 12.8555 8.14738
LeftFoot  -13.6821 -0.440364 -3.50784
LeftToes  -16.9675 1.34695e-006 1.12385e-007
495
root  -46.8229 33.9445 14.9195 -156.349 50.0795 -172.384
RightUpLeg  -44.2056 -12.0064 13.239
RightLeg  37.8796 -4.46019 -3.04432
RightFoot  1.34936 0.004808 0.105268
RightToes  -18.9156 -0.0754966 -0.168047
Spine  0.359175 1.97474 -0.379347
Spine1  0.656543 4.21002 -0.186059
HEad  -77.9266 -4.89779 2.49114
LeftShoulder1  -1.94126e-019 -3.10601e-018 -2.51263e-017
LeftArm  -5.55104 13.8964 -79.9843
LeftForeArm  29.3251 -24.0639 -4.17355
LeftHand  -0.390894 -0.0966417 8.3443
RightShoulder  -4.96962e-017 0 -2.36833e-017
RightArm  -6.43948 23.0136 80.1496
RightForeArm  42.7695 35.3094 5.43103
RightHand  -0.242725 -2.86162 -10.7024
LeftUpLeg  -17.0194 -2.65257 2.98969
LeftLeg  33.5241 13.3735 7.55354
LeftFoot  -9.05347 -0.194392 -2.2934
LeftToes  -27.0594 1.34695e-006 1.12385e-007
496
root  -45.2915 34.124 13.7845 -155.939 49.2566 -172.091
RightUpLeg  -42.2472 -11.1761 14.0081
RightLeg  21.9623 -1.28599 -0.427881
RightFoot  2.40129 0.00831767 0.124987
RightToes  -22.1688 -0.0938761 -0.194027
Spine  -0.0754169 1.68224 0.170365
Spine1  -0.143971 3.52054 1.00166
HEad  -77.6614 -5.12619 2.99388
LeftShoulder1  -1.94126e-019 -3.10601e-018 -2.51263e-017
LeftArm  -0.224798 15.4199 -80.8931
LeftForeArm  29.0112 -25.6843 -4.34577
LeftHand  -0.364052 -0.664456 7.09273
RightShoulder  -4.96962e-017 0 -2.36833e-017
RightArm  -6.86706 22.6787 79.7267
RightForeArm  42.7585 36.8509 5.83671
RightHand  -0.223742 -3.14157 -11.0056
LeftUpLeg  -14.0415 -3.24378 3.50264
LeftLeg  32.3631 13.8591 7.46071
LeftFoot  -4.56499 -0.0505172 -1.10582
LeftToes  -37.9125 1.34695e-006 1.12385e-007
497
root  -43.745 33.959 12.5143 -157.029 48.5358 -173.239
RightUpLeg  -40.203 -10.5709 13.2421
RightLeg  10.0872 1.97567 0.222709
RightFoot  1.8356 0.00456169 0.216134
RightToes  -25.9263 -0.116899 -0.22268
Spine  -0.546274 1.32243 0.342412
Spine1  -1.04492 2.71328 1.44114
HEad  -77.067 -5.48555 3.4475
LeftShoulder1  -1.94126e-019 -3.10601e-018 -2.51263e-017
LeftArm  6.22659 17.3048 -80.9587
LeftForeArm  28.2237 -28.6596 -4.81578
LeftHand  -0.349375 -1.30884 6.2068
RightShoulder  -4.96962e-017 0 -2.36833e-017
RightArm  -7.10537 22.3593 79.3981
RightForeArm  42.741 38.8457 6.38604
RightHand  -0.2132 -3.30136 -11.2339
LeftUpLeg  -12.2182 -3.81119 3.01472
LeftLeg  34.551 13.3768 7.86849
LeftFoot  -0.592984 -0.000812808 0.0044348
LeftToes  -49.8067 1.34695e-006 1.12385e-007
498
root  -42.02 33.5119 11.1915 -158.173 47.0323 -173.02
RightUpLeg  -37.4685 -9.17824 12.2929
RightLeg  4.62434 4.2133 0.070323
RightFoot  5.72883 -0.00223433 0.552347
RightToes  -24.0714 -0.105298 -0.208724
Spine  -0.830992 1.07141 0.959785
Spine1  -1.59486 2.20001 2.71401
HEad  -75.9463 -6.01713 3.57373
LeftShoulder1  -1.94126e-019 -3.10601e-018 -2.51263e-017
LeftArm  10.5843 19.1407 -81.7289
LeftForeArm  28.4796 -31.0132 -5.20322
LeftHand  -0.322596 -2.00372 5.25422
RightShoulder  -4.96962e-017 0 -2.36833e-017
RightArm  -7.50682 22.1363 78.0245
RightForeArm  42.4231 40.7109 6.9437
RightHand  -0.21131 -3.30965 -11.1696
LeftUpLeg  -11.3186 -3.12111 4.20416
LeftLeg  40.739 10.3881 7.74716
LeftFoot  3.55398 -0.0254944 0.983299
LeftToes  -60.8153 1.34695e-006 1.12385e-007
